<mxfile host="app.diagrams.net" modified="2024-03-06T08:53:43.141Z" agent="Mozilla/5.0 (Windows NT 10.0; Win64; x64) AppleWebKit/537.36 (KHTML, like Gecko) Chrome/122.0.0.0 Safari/537.36" etag="ci2PXC3io_MVMNLAzUnv" version="24.0.2" type="onedrive">
  <diagram name="Page-1" id="UU6crA1hBtZOHEzDZBIP">
    <mxGraphModel grid="1" page="1" gridSize="10" guides="1" tooltips="1" connect="1" arrows="1" fold="1" pageScale="1" pageWidth="827" pageHeight="1169" math="0" shadow="0">
      <root>
        <mxCell id="0" />
        <mxCell id="1" parent="0" />
        <mxCell id="jo2THTR1xl-fLWHIL1Qo-3" value="" style="ellipse;whiteSpace=wrap;html=1;aspect=fixed;fillColor=#00CCCC;" vertex="1" parent="1">
          <mxGeometry x="375" y="70" width="30" height="30" as="geometry" />
        </mxCell>
        <mxCell id="jo2THTR1xl-fLWHIL1Qo-4" value="" style="rounded=1;whiteSpace=wrap;html=1;strokeWidth=2;strokeColor=#FF9933;" vertex="1" parent="1">
          <mxGeometry x="305" y="160" width="170" height="40" as="geometry" />
        </mxCell>
        <mxCell id="jo2THTR1xl-fLWHIL1Qo-6" value="&lt;font style=&quot;font-size: 18px;&quot;&gt;تسجيل الدخول&lt;/font&gt;" style="text;html=1;align=center;verticalAlign=middle;whiteSpace=wrap;rounded=0;" vertex="1" parent="1">
          <mxGeometry x="345" y="165" width="90" height="30" as="geometry" />
        </mxCell>
        <mxCell id="jo2THTR1xl-fLWHIL1Qo-9" value="" style="endArrow=classic;html=1;rounded=0;entryX=0.5;entryY=0;entryDx=0;entryDy=0;" edge="1" parent="1" target="jo2THTR1xl-fLWHIL1Qo-4">
          <mxGeometry width="50" height="50" relative="1" as="geometry">
            <mxPoint x="389.5" y="100" as="sourcePoint" />
            <mxPoint x="390.5" y="160" as="targetPoint" />
          </mxGeometry>
        </mxCell>
        <mxCell id="jo2THTR1xl-fLWHIL1Qo-10" value="" style="endArrow=classic;html=1;rounded=0;exitX=0.5;exitY=1;exitDx=0;exitDy=0;" edge="1" parent="1" source="jo2THTR1xl-fLWHIL1Qo-4">
          <mxGeometry width="50" height="50" relative="1" as="geometry">
            <mxPoint x="390" y="210" as="sourcePoint" />
            <mxPoint x="390" y="280" as="targetPoint" />
          </mxGeometry>
        </mxCell>
        <mxCell id="jo2THTR1xl-fLWHIL1Qo-11" value="" style="rounded=0;whiteSpace=wrap;html=1;strokeColor=#FF8000;" vertex="1" parent="1">
          <mxGeometry x="287.5" y="280" width="205" height="60" as="geometry" />
        </mxCell>
        <mxCell id="jo2THTR1xl-fLWHIL1Qo-12" value="&lt;span style=&quot;font-size: 18px;&quot;&gt;إدخال البريد الإلكتروني وكلمة المرور&lt;/span&gt;" style="text;html=1;align=center;verticalAlign=middle;whiteSpace=wrap;rounded=0;" vertex="1" parent="1">
          <mxGeometry x="295" y="295" width="190" height="30" as="geometry" />
        </mxCell>
        <mxCell id="jo2THTR1xl-fLWHIL1Qo-13" value="" style="rhombus;whiteSpace=wrap;html=1;strokeColor=#FF8000;" vertex="1" parent="1">
          <mxGeometry x="335" y="400" width="110" height="90" as="geometry" />
        </mxCell>
        <mxCell id="jo2THTR1xl-fLWHIL1Qo-15" value="&lt;font style=&quot;font-size: 18px;&quot;&gt;هل البيانات صحيحة&lt;/font&gt;" style="text;html=1;align=center;verticalAlign=middle;whiteSpace=wrap;rounded=0;" vertex="1" parent="1">
          <mxGeometry x="355" y="430" width="70" height="30" as="geometry" />
        </mxCell>
        <mxCell id="jo2THTR1xl-fLWHIL1Qo-41" value="" style="edgeStyle=orthogonalEdgeStyle;rounded=0;orthogonalLoop=1;jettySize=auto;html=1;" edge="1" parent="1" source="jo2THTR1xl-fLWHIL1Qo-17" target="jo2THTR1xl-fLWHIL1Qo-36">
          <mxGeometry relative="1" as="geometry" />
        </mxCell>
        <mxCell id="jo2THTR1xl-fLWHIL1Qo-17" value="" style="rhombus;whiteSpace=wrap;html=1;strokeColor=#FF8000;" vertex="1" parent="1">
          <mxGeometry x="335" y="540" width="110" height="90" as="geometry" />
        </mxCell>
        <mxCell id="jo2THTR1xl-fLWHIL1Qo-18" value="&lt;font style=&quot;font-size: 18px;&quot;&gt;هل الحساب موجود&lt;/font&gt;" style="text;html=1;align=center;verticalAlign=middle;whiteSpace=wrap;rounded=0;" vertex="1" parent="1">
          <mxGeometry x="355" y="570" width="70" height="30" as="geometry" />
        </mxCell>
        <mxCell id="jo2THTR1xl-fLWHIL1Qo-20" value="" style="endArrow=classic;html=1;rounded=0;" edge="1" parent="1">
          <mxGeometry width="50" height="50" relative="1" as="geometry">
            <mxPoint x="389.5" y="490" as="sourcePoint" />
            <mxPoint x="390" y="540" as="targetPoint" />
          </mxGeometry>
        </mxCell>
        <mxCell id="jo2THTR1xl-fLWHIL1Qo-21" value="" style="endArrow=classic;html=1;rounded=0;" edge="1" parent="1">
          <mxGeometry width="50" height="50" relative="1" as="geometry">
            <mxPoint x="389.5" y="340" as="sourcePoint" />
            <mxPoint x="390" y="400" as="targetPoint" />
          </mxGeometry>
        </mxCell>
        <mxCell id="jo2THTR1xl-fLWHIL1Qo-22" value="" style="endArrow=classic;html=1;rounded=0;entryX=0;entryY=0.5;entryDx=0;entryDy=0;" edge="1" parent="1" target="jo2THTR1xl-fLWHIL1Qo-29">
          <mxGeometry width="50" height="50" relative="1" as="geometry">
            <mxPoint x="445" y="444.5" as="sourcePoint" />
            <mxPoint x="510" y="444.5" as="targetPoint" />
          </mxGeometry>
        </mxCell>
        <mxCell id="jo2THTR1xl-fLWHIL1Qo-28" value="" style="rounded=0;whiteSpace=wrap;html=1;strokeColor=#FF9933;" vertex="1" parent="1">
          <mxGeometry x="570" y="425" width="150" height="40" as="geometry" />
        </mxCell>
        <mxCell id="jo2THTR1xl-fLWHIL1Qo-29" value="&lt;span style=&quot;font-size: 18px;&quot;&gt;إظهار رسالة خطأ&lt;/span&gt;" style="text;html=1;align=center;verticalAlign=middle;whiteSpace=wrap;rounded=0;" vertex="1" parent="1">
          <mxGeometry x="570" y="430" width="141.25" height="30" as="geometry" />
        </mxCell>
        <mxCell id="jo2THTR1xl-fLWHIL1Qo-32" value="" style="endArrow=classic;html=1;rounded=1;curved=0;entryX=1;entryY=0.5;entryDx=0;entryDy=0;" edge="1" parent="1" target="jo2THTR1xl-fLWHIL1Qo-11">
          <mxGeometry width="50" height="50" relative="1" as="geometry">
            <mxPoint x="655" y="425" as="sourcePoint" />
            <mxPoint x="510" y="310" as="targetPoint" />
            <Array as="points">
              <mxPoint x="655" y="310" />
            </Array>
          </mxGeometry>
        </mxCell>
        <mxCell id="jo2THTR1xl-fLWHIL1Qo-33" value="" style="endArrow=classic;html=1;rounded=0;" edge="1" parent="1">
          <mxGeometry width="50" height="50" relative="1" as="geometry">
            <mxPoint x="389.5" y="630" as="sourcePoint" />
            <mxPoint x="390" y="680" as="targetPoint" />
          </mxGeometry>
        </mxCell>
        <mxCell id="jo2THTR1xl-fLWHIL1Qo-34" value="" style="rounded=1;whiteSpace=wrap;html=1;strokeWidth=2;strokeColor=#FF8000;" vertex="1" parent="1">
          <mxGeometry x="329.68" y="680" width="120" height="40" as="geometry" />
        </mxCell>
        <mxCell id="jo2THTR1xl-fLWHIL1Qo-36" value="&lt;span style=&quot;font-size: 18px;&quot;&gt;تسجيل الدخول&lt;/span&gt;" style="text;html=1;align=center;verticalAlign=middle;whiteSpace=wrap;rounded=0;" vertex="1" parent="1">
          <mxGeometry x="329.68" y="685" width="120.63" height="30" as="geometry" />
        </mxCell>
        <mxCell id="jo2THTR1xl-fLWHIL1Qo-46" value="&lt;font style=&quot;font-size: 14px;&quot;&gt;لا&lt;/font&gt;" style="text;html=1;align=center;verticalAlign=middle;whiteSpace=wrap;rounded=0;" vertex="1" parent="1">
          <mxGeometry x="425" y="420" width="60" height="30" as="geometry" />
        </mxCell>
        <mxCell id="jo2THTR1xl-fLWHIL1Qo-49" value="" style="endArrow=classic;html=1;rounded=1;entryX=0.555;entryY=0.985;entryDx=0;entryDy=0;entryPerimeter=0;curved=0;" edge="1" parent="1">
          <mxGeometry width="50" height="50" relative="1" as="geometry">
            <mxPoint x="445" y="584.6" as="sourcePoint" />
            <mxPoint x="653.25" y="464.0000000000001" as="targetPoint" />
            <Array as="points">
              <mxPoint x="652.19" y="584.19" />
            </Array>
          </mxGeometry>
        </mxCell>
        <mxCell id="jo2THTR1xl-fLWHIL1Qo-50" value="&lt;font style=&quot;font-size: 14px;&quot;&gt;لا&lt;/font&gt;" style="text;html=1;align=center;verticalAlign=middle;whiteSpace=wrap;rounded=0;" vertex="1" parent="1">
          <mxGeometry x="425" y="560" width="60" height="30" as="geometry" />
        </mxCell>
        <mxCell id="jo2THTR1xl-fLWHIL1Qo-52" value="" style="ellipse;whiteSpace=wrap;html=1;aspect=fixed;fillColor=#00CCCC;" vertex="1" parent="1">
          <mxGeometry x="375" y="775" width="30" height="30" as="geometry" />
        </mxCell>
        <mxCell id="jo2THTR1xl-fLWHIL1Qo-54" value="" style="ellipse;whiteSpace=wrap;html=1;aspect=fixed;fillColor=none;strokeColor=#FF0000;strokeWidth=2;" vertex="1" parent="1">
          <mxGeometry x="370" y="770" width="40" height="40" as="geometry" />
        </mxCell>
        <mxCell id="jo2THTR1xl-fLWHIL1Qo-56" value="" style="endArrow=classic;html=1;rounded=0;" edge="1" parent="1">
          <mxGeometry width="50" height="50" relative="1" as="geometry">
            <mxPoint x="389.09" y="720" as="sourcePoint" />
            <mxPoint x="389.59" y="770" as="targetPoint" />
          </mxGeometry>
        </mxCell>
        <mxCell id="jfYgan247EVUhp3VusAi-1" value="&lt;font style=&quot;font-size: 14px;&quot;&gt;نعم&lt;/font&gt;" style="text;html=1;align=center;verticalAlign=middle;whiteSpace=wrap;rounded=0;" vertex="1" parent="1">
          <mxGeometry x="335" y="490" width="60" height="30" as="geometry" />
        </mxCell>
        <mxCell id="jfYgan247EVUhp3VusAi-2" value="&lt;font style=&quot;font-size: 14px;&quot;&gt;نعم&lt;/font&gt;" style="text;html=1;align=center;verticalAlign=middle;whiteSpace=wrap;rounded=0;" vertex="1" parent="1">
          <mxGeometry x="345" y="630" width="60" height="30" as="geometry" />
        </mxCell>
      </root>
    </mxGraphModel>
  </diagram>
</mxfile>
